# xmcd
#
# Track frame offsets:
#	150
#	15008
#	33372
#	45236
#	61358
#	82619
#	97470
#	113010
#	129727
#	146436
#	168917
#	182441
#
# Disc length: 2599 seconds
# Revision: 4
# Processed by: cddbd v1.5.2PL0 Copyright (c) Steve Scherf et al.
# Submitted via: dBpowerAMP V12.0
#
DISCID=880a250c
DTITLE=Emmylou Harris - Pieces of the Sky
DYEAR=1975
DGENRE=Country
TTITLE0=Bluebird Wine
TTITLE1=Too Far Gone
TTITLE2=If I Could Only Win Your Love
TTITLE3=Boulder to Birmingham
TTITLE4=Before Believing
TTITLE5=Bottle Let Me Down
TTITLE6=Sleepless Nights
TTITLE7=Coat of Many Colors
TTITLE8=For No One
TTITLE9=Queen of the Silver Dollar
TTITLE10=Hank and Lefty
TTITLE11=California Cottonfields
EXTD=
EXTT0=
EXTT1=
EXTT2=
EXTT3=
EXTT4=
EXTT5=
EXTT6=
EXTT7=
EXTT8=
EXTT9=
EXTT10=
EXTT11=
PLAYORDER=
